<svg width="2405" height="1809" viewBox="0 0 2405 1809" fill="none" xmlns="http://www.w3.org/2000/svg">
<path d="M0 371.806C0 470.414 39.1723 564.985 108.899 634.712C178.626 704.439 273.197 743.611 371.806 743.611C470.414 743.611 564.985 704.439 634.712 634.712C704.439 564.985 743.611 470.414 743.611 371.806C743.611 273.197 704.439 178.626 634.712 108.899C564.985 39.1723 470.414 0 371.806 0C273.197 0 178.626 39.1723 108.899 108.899C39.1723 178.626 0 273.197 0 371.806Z" fill="#252831"/>
<path d="M1692.91 1808.7C1834 1812.98 1977.18 1762.97 2051.57 1643.01C2129.7 1517.02 2128.54 1355.6 2052.97 1228.06C1978.8 1102.88 1838.41 1036.11 1692.91 1037.71C1550.29 1039.28 1415.26 1110.97 1346.31 1235.83C1279.44 1356.93 1298.5 1503.95 1370.11 1622.31C1439.05 1736.25 1559.81 1804.65 1692.91 1808.7Z" fill="#252831"/>
<path d="M1921.79 995.163C2091.56 990.142 2280.8 972.023 2365.65 824.892C2450.46 677.841 2383.93 497.49 2290.56 355.718C2207.67 229.854 2072.44 154.942 1921.79 150.899C1763 146.639 1608.24 204.887 1517.07 334.962C1409.44 488.52 1332 692.694 1430 852.564C1525.61 1008.53 1738.93 1000.57 1921.79 995.163Z" fill="#252831"/>
<path d="M790.1 1719.69C948.058 1724.29 1101.26 1647.66 1179.87 1510.57C1258.11 1374.13 1237.31 1208.9 1162.25 1070.68C1083.07 924.849 955.995 788.88 790.1 792.763C628.552 796.545 519.914 943.241 446.947 1087.42C382.153 1215.45 369.319 1362.84 437.767 1488.96C509.54 1621.2 639.699 1715.31 790.1 1719.69Z" fill="#252831"/>
</svg>
