<svg width="40" height="43" viewBox="0 0 40 43" fill="none" xmlns="http://www.w3.org/2000/svg">
<path d="M39.791 23.3671C39.2535 31.2962 35.6726 36.9809 28.8141 40.526C26.6036 41.6681 24.2039 42.1789 21.7387 42.4318C20.891 42.5196 20.6643 42.2207 20.7035 41.4004C21.132 32.6552 28.3029 24.8401 37.0299 23.6496C37.8797 23.5335 38.7368 23.4663 39.791 23.3671Z" fill="white"/>
<path d="M0.205134 23.4664C11.1984 23.4457 19.38 33.2505 18.9924 42.2959C9.15422 42.7463 -0.154569 33.4751 0.205134 23.4664Z" fill="white"/>
<path d="M37.6027 14.3598C37.5953 16.8614 37.1765 19.3448 36.3632 21.7105C36.2678 21.9836 35.7721 22.2006 35.4272 22.2868C28.6376 23.9665 23.7764 27.9788 20.8436 34.3237C20.5088 35.052 20.2526 35.8212 19.9081 36.712C19.6683 36.0788 19.5336 35.5628 19.2921 35.1136C18.3 33.3261 17.2892 31.5457 16.241 29.7882C15.9919 29.3706 15.7711 29.0658 16.0239 28.536C19.6999 20.81 25.7165 16.1499 34.164 14.6845C35.2495 14.4924 36.3691 14.47 37.6027 14.3598Z" fill="white"/>
<path d="M2.21729 14.4138C8.70671 14.5076 14.1183 16.8228 18.6614 21.1321L14.448 27.6477C14.3054 27.5722 14.1711 27.4819 14.0474 27.3783C11.2394 24.7578 7.94889 23.1143 4.23322 22.2441C3.93769 22.1766 3.5649 21.9689 3.46949 21.7291C2.62892 19.4303 2.27724 17.042 2.21729 14.4138Z" fill="white"/>
<path d="M19.876 19.9977L16.6193 17.2889C19.6573 11.8942 26.4296 8.06077 32.6404 8.2326C32.6638 9.93315 32.4109 11.6262 31.8914 13.2456C31.845 13.401 31.5752 13.5433 31.3823 13.5918C27.1413 14.6959 23.2552 16.8713 20.0968 19.9094C20.0279 19.9495 19.9535 19.9792 19.876 19.9977Z" fill="white"/>
<path d="M19.9702 0.255432C21.6192 1.85214 22.8229 3.75958 23.7589 5.84096C24.7527 8.05912 24.7299 8.05321 22.6527 9.26277C21.8738 9.71578 21.1552 10.2811 20.3729 10.7151C20.2244 10.7833 20.0629 10.8185 19.8995 10.8185C19.736 10.8185 19.5745 10.7833 19.426 10.7151C18.1776 10.0244 16.9549 9.27966 15.7496 8.51593C15.5435 8.38674 15.3097 8.04772 15.3379 7.84043C15.6157 5.88022 18.2852 1.53381 19.9702 0.255432Z" fill="white"/>
<path d="M7.16437 8.15073C11.4922 8.29849 15.2471 9.58616 18.5634 12.1079L15.1716 16.2335C13.4756 15.5204 11.8211 14.4603 10.0369 14.1614C7.66001 13.7624 7.51943 12.1716 7.3096 10.4436C7.20912 9.71746 7.21123 8.97821 7.16437 8.15073Z" fill="white"/>
<path d="M21.4749 42.6408C21.1561 42.6408 20.9345 42.5686 20.7741 42.417C20.563 42.2182 20.4849 41.9104 20.5098 41.3911C20.9438 32.537 28.1889 24.6595 37.0037 23.4575C37.67 23.3663 38.3336 23.3055 39.102 23.2358C39.3173 23.216 39.5402 23.1936 39.7724 23.1738L40 23.1523L39.9844 23.3802C39.4368 31.4626 35.8123 37.127 28.9033 40.6987C26.9359 41.7149 24.6658 42.3271 21.7586 42.6247C21.6644 42.6349 21.5697 42.6403 21.4749 42.6408ZM39.5808 23.5816L39.137 23.6238C38.3737 23.6935 37.7139 23.7539 37.0561 23.8434C28.4203 25.0196 21.3212 32.7363 20.899 41.4097C20.8809 41.7947 20.9265 42.0252 21.0426 42.135C21.1587 42.2448 21.3753 42.2743 21.7181 42.2389C24.5759 41.9459 26.802 41.3468 28.7264 40.3538C35.4383 36.8834 38.991 31.3959 39.5808 23.5816Z" fill="white"/>
<path d="M18.3068 42.5066C13.8151 42.5066 9.26016 40.5286 5.70958 37.0127C1.9137 33.2552 -0.163455 28.3135 0.0100639 23.4605L0.0168189 23.2739H0.238889C5.35832 23.2739 10.2 25.3818 13.8755 29.2123C17.3948 32.8769 19.3791 37.7726 19.1849 42.3052L19.1773 42.4825L18.9996 42.4909C18.7695 42.5015 18.5377 42.5066 18.3068 42.5066ZM0.393409 23.661C0.282374 28.3473 2.31267 33.1024 5.98273 36.737C9.59158 40.3108 14.2529 42.26 18.8037 42.1101C18.935 37.7312 16.9971 33.0226 13.5952 29.4792C10.0315 25.7643 5.34903 23.7028 0.393409 23.661Z" fill="white"/>
<path d="M19.906 37.2545L19.7265 36.78C19.6463 36.5689 19.5779 36.3696 19.5155 36.1826C19.3888 35.8119 19.2769 35.4915 19.1228 35.2048C17.985 33.1547 17.0165 31.4638 16.0759 29.8853L16.0311 29.811C15.793 29.4154 15.5667 29.0418 15.8505 28.4503C19.5623 20.6483 25.7131 15.9536 34.1311 14.4911C34.8797 14.3594 35.6375 14.307 36.4396 14.2521C36.812 14.2264 37.1928 14.2002 37.5854 14.1652L37.7965 14.1462V14.3573C37.7902 16.8802 37.368 19.3849 36.5469 21.7704C36.3856 22.2327 35.567 22.4489 35.4745 22.4721C28.7761 24.1322 23.9129 28.1459 21.0201 34.4044C20.7934 34.8971 20.5979 35.4201 20.3932 35.9741C20.2969 36.2329 20.1973 36.5009 20.0892 36.7813L19.906 37.2545ZM37.4064 14.5713C37.086 14.5979 36.7732 14.6194 36.4654 14.6406C35.6738 14.695 34.9261 14.7465 34.1974 14.8745C25.9095 16.3124 19.854 20.9366 16.1992 28.6187C16.0067 29.0219 16.1405 29.244 16.3621 29.6121L16.4077 29.6881C17.3526 31.2688 18.3207 32.9626 19.4635 35.0186C19.6324 35.3353 19.7489 35.6692 19.8823 36.056C19.8929 36.0872 19.9039 36.1189 19.9148 36.1505C19.9545 36.045 19.9929 35.9394 20.0309 35.839C20.2395 35.2779 20.4362 34.748 20.6693 34.2418C23.614 27.8706 28.5642 23.7851 35.3825 22.0985C35.7696 22.0018 36.1285 21.7991 36.1821 21.6463C36.965 19.3684 37.3783 16.9799 37.4064 14.5713Z" fill="white"/>
<path d="M14.5142 27.9027L14.3568 27.8183C14.2025 27.7361 14.0571 27.6383 13.9228 27.5265C11.2111 24.9959 8.02946 23.3317 4.18883 22.432C3.90259 22.3666 3.42594 22.1441 3.28915 21.7987C2.49164 19.6148 2.08803 17.2708 2.02302 14.4185L2.01837 14.2171L2.22018 14.2196C8.66738 14.3121 14.0891 16.5277 18.7948 20.9911L18.9117 21.1021L14.5142 27.9027ZM2.41649 14.6114C2.4946 17.329 2.88807 19.5742 3.65181 21.6619C3.7088 21.8055 4.0018 21.9912 4.27622 22.0541C8.18609 22.9703 11.4251 24.6649 14.1794 27.2361C14.2451 27.2902 14.3139 27.3404 14.3855 27.3864L18.4106 21.1621C13.8552 16.8895 8.6201 14.7448 2.41649 14.6114Z" fill="white"/>
<path d="M19.827 20.2092L16.3706 17.335L16.4499 17.1939C19.5357 11.7144 26.3426 7.86109 32.6459 8.03926L32.832 8.04432L32.8346 8.23051C32.8582 9.95209 32.6015 11.666 32.0746 13.3052C31.9944 13.5716 31.6166 13.7329 31.4283 13.7806C27.2214 14.8787 23.3664 17.0371 20.2315 20.0496L20.1943 20.0775C20.1092 20.1268 20.0173 20.1635 19.9216 20.1864L19.827 20.2092ZM16.8683 17.2438L19.919 19.7811C19.9401 19.7726 19.9606 19.763 19.9807 19.7524C23.1612 16.7023 27.0694 14.517 31.3333 13.4044C31.5136 13.3588 31.6871 13.2419 31.7061 13.1895C32.2008 11.6492 32.4511 10.0408 32.4478 8.42302C26.3929 8.33605 19.8929 12.0112 16.8683 17.2438Z" fill="white"/>
<path d="M19.8988 11.0123C19.7076 11.0124 19.5186 10.9715 19.3445 10.8924C18.2249 10.2739 17.0537 9.57307 15.6449 8.68057C15.4076 8.53154 15.1019 8.13173 15.1446 7.81635C15.4287 5.81899 18.1126 1.42108 19.8524 0.100902L19.9849 0L20.1048 0.116101C21.6467 1.60853 22.8997 3.45517 23.9353 5.76115C24.9651 8.05869 24.933 8.16086 22.7887 9.40757L22.7498 9.43037C22.391 9.63893 22.0372 9.87705 21.6944 10.1059C21.2988 10.3723 20.8897 10.648 20.4654 10.8831C20.2884 10.9674 20.0949 11.0115 19.8988 11.0123ZM19.9562 0.513801C18.3025 1.88464 15.7905 6.03262 15.5292 7.86913C15.5153 7.97045 15.6858 8.2491 15.8517 8.35126C17.2547 9.23997 18.4195 9.937 19.5189 10.5466C19.6414 10.598 19.773 10.6239 19.9058 10.6227C20.0387 10.6215 20.1699 10.5934 20.2915 10.5399C20.6875 10.3195 21.0894 10.0489 21.4782 9.78712C21.8257 9.55281 22.185 9.31089 22.5544 9.096L22.5936 9.07363C23.541 8.52478 24.0628 8.21912 24.1756 7.86448C24.2904 7.50351 24.0384 6.94159 23.5811 5.92243C22.5936 3.72115 21.4056 1.9505 19.9562 0.513801Z" fill="white"/>
<path d="M15.2286 16.4682L15.0952 16.4121C14.5675 16.1904 14.0372 15.9321 13.5247 15.6825C12.3869 15.1282 11.2103 14.5553 10.0037 14.3527C7.53515 13.9385 7.3287 12.2307 7.12943 10.5792L7.11592 10.4673C7.04625 9.9577 7.02599 9.44347 7.00446 8.89885C6.99475 8.6599 6.98504 8.41503 6.97068 8.16172L6.95886 7.95062L7.16996 7.9578C11.5801 8.10599 15.3443 9.41476 18.6796 11.9534L18.84 12.0754L15.2286 16.4682ZM7.36923 8.35297C7.37809 8.53324 7.38527 8.71014 7.39203 8.88323C7.41356 9.41856 7.43424 9.92392 7.50095 10.4175L7.51488 10.5327C7.71373 12.1792 7.88556 13.6037 10.0683 13.9697C11.3302 14.1808 12.5321 14.7672 13.6944 15.3334C14.1588 15.5597 14.6384 15.7932 15.1125 15.9979L18.2836 12.1412C15.1079 9.77236 11.5337 8.53155 7.36923 8.35297Z" fill="white"/>
<path d="M39.791 23.3671C39.2535 31.2962 35.6726 36.9809 28.8141 40.526C26.6036 41.6681 24.2039 42.1789 21.7387 42.4318C20.891 42.5196 20.6643 42.2207 20.7035 41.4004C21.132 32.6552 28.3029 24.8401 37.0299 23.6496C37.8797 23.5335 38.7368 23.4663 39.791 23.3671Z" fill="white"/>
</svg>
