<svg width="37" height="37" viewBox="0 0 37 37" fill="none" xmlns="http://www.w3.org/2000/svg">
<path d="M26.8342 2H10.2781C5.70622 2 2 5.70622 2 10.2781V26.8342C2 31.4061 5.70622 35.1123 10.2781 35.1123H26.8342C31.4061 35.1123 35.1123 31.4061 35.1123 26.8342V10.2781C35.1123 5.70622 31.4061 2 26.8342 2Z" stroke="white" stroke-width="3.31123" stroke-linecap="round" stroke-linejoin="round"/>
<path d="M25.1786 17.5131C25.3829 18.891 25.1476 20.2982 24.506 21.5346C23.8645 22.771 22.8494 23.7737 21.6052 24.3999C20.3609 25.0262 18.9509 25.2442 17.5757 25.0229C16.2004 24.8016 14.93 24.1523 13.945 23.1673C12.96 22.1824 12.3107 20.9119 12.0894 19.5366C11.8681 18.1614 12.0861 16.7514 12.7124 15.5071C13.3386 14.2629 14.3413 13.2478 15.5777 12.6063C16.8141 11.9647 18.2213 11.7294 19.5992 11.9337C21.0047 12.1421 22.3059 12.797 23.3106 13.8017C24.3153 14.8064 24.9702 16.1076 25.1786 17.5131Z" stroke="white" stroke-width="3.31123" stroke-linecap="round" stroke-linejoin="round"/>
<path d="M27.662 9.45027H27.6786" stroke="white" stroke-width="3.31123" stroke-linecap="round" stroke-linejoin="round"/>
</svg>
