<svg width="38" height="38" viewBox="0 0 38 38" fill="none" xmlns="http://www.w3.org/2000/svg">
<g clip-path="url(#clip0_435_2)">
<path d="M19 0C29.4975 0 38 8.5025 38 19C37.999 22.981 36.7496 26.8614 34.4276 30.0951C32.1057 33.3288 28.8281 35.7529 25.0563 37.0263C24.1063 37.2163 23.75 36.6225 23.75 36.1238C23.75 35.4825 23.7738 33.44 23.7738 30.8988C23.7738 29.1175 23.18 27.9775 22.4913 27.3837C26.7188 26.9087 31.16 25.2937 31.16 18.0025C31.16 15.9125 30.4238 14.2262 29.2125 12.8962C29.4025 12.4212 30.0675 10.4737 29.0225 7.86125C29.0225 7.86125 27.4313 7.33875 23.7975 9.80875C22.2775 9.38125 20.6625 9.1675 19.0475 9.1675C17.4325 9.1675 15.8175 9.38125 14.2975 9.80875C10.6638 7.3625 9.0725 7.86125 9.0725 7.86125C8.0275 10.4737 8.6925 12.4212 8.8825 12.8962C7.67125 14.2262 6.935 15.9362 6.935 18.0025C6.935 25.27 11.3525 26.9087 15.58 27.3837C15.0338 27.8587 14.535 28.69 14.3688 29.925C13.2763 30.4238 10.545 31.2312 8.835 28.3575C8.47875 27.7875 7.41 26.3862 5.91375 26.41C4.3225 26.4337 5.2725 27.3125 5.9375 27.6687C6.745 28.12 7.67125 29.8062 7.885 30.3525C8.265 31.4212 9.5 33.4638 14.2738 32.585C14.2738 34.1763 14.2975 35.6725 14.2975 36.1238C14.2975 36.6225 13.9413 37.1925 12.9913 37.0263C9.20702 35.7666 5.9155 33.3474 3.58362 30.1118C1.25174 26.8761 -0.00209114 22.9884 2.61799e-06 19C2.61799e-06 8.5025 8.5025 0 19 0Z" fill="white"/>
</g>
<defs>
<clipPath id="clip0_435_2">
<rect width="38" height="38" fill="white"/>
</clipPath>
</defs>
</svg>
