<svg width="37" height="37" viewBox="0 0 37 37" fill="none" xmlns="http://www.w3.org/2000/svg">
<path d="M27.2753 17.1488C27.116 17.0724 26.9541 16.9989 26.7901 16.9285C26.5045 11.6662 23.6291 8.65357 18.801 8.62273C18.7791 8.6226 18.7573 8.6226 18.7355 8.6226C15.8476 8.6226 13.4458 9.85528 11.9676 12.0984L14.6229 13.9199C15.7272 12.2444 17.4604 11.8872 18.7367 11.8872C18.7515 11.8872 18.7663 11.8872 18.7809 11.8873C20.3706 11.8974 21.5702 12.3597 22.3466 13.261C22.9117 13.9173 23.2896 14.8241 23.4767 15.9685C22.0672 15.729 20.5429 15.6553 18.9133 15.7488C14.323 16.0132 11.3719 18.6904 11.5701 22.4104C11.6707 24.2974 12.6108 25.9208 14.217 26.9813C15.5751 27.8778 17.3243 28.3162 19.1421 28.2169C21.5428 28.0853 23.4262 27.1694 24.7401 25.4945C25.7379 24.2227 26.369 22.5744 26.6477 20.4976C27.7918 21.1881 28.6397 22.0967 29.108 23.189C29.9043 25.0457 29.9507 28.0969 27.4611 30.5844C25.2798 32.7635 22.6579 33.7062 18.6953 33.7353C14.2997 33.7028 10.9755 32.2931 8.81409 29.5455C6.79015 26.9726 5.74417 23.2564 5.70515 18.5C5.74417 13.7435 6.79015 10.0273 8.81409 7.45448C10.9755 4.70688 14.2997 3.29724 18.6952 3.26458C23.1227 3.29749 26.5049 4.71392 28.749 7.47477C29.8493 8.82866 30.679 10.5313 31.2259 12.5165L34.3375 11.6863C33.6746 9.24272 32.6315 7.13709 31.212 5.39082C28.335 1.85129 24.1275 0.0376066 18.7061 0H18.6844C13.274 0.037476 9.11356 1.85806 6.31856 5.41111C3.83139 8.5729 2.54843 12.9723 2.50532 18.487L2.50519 18.5L2.50532 18.513C2.54843 24.0276 3.83139 28.4272 6.31856 31.5889C9.11356 35.1419 13.274 36.9626 18.6844 37H18.7061C23.5162 36.9667 26.9067 35.7073 29.6998 32.9167C33.3541 29.2658 33.2441 24.6896 32.0397 21.8803C31.1756 19.8657 29.5281 18.2295 27.2753 17.1488ZM18.9703 24.9571C16.9584 25.0704 14.8683 24.1674 14.7652 22.2331C14.6888 20.799 15.7858 19.1988 19.0938 19.0081C19.4726 18.9863 19.8443 18.9756 20.2095 18.9756C21.411 18.9756 22.5351 19.0923 23.557 19.3157C23.1759 24.076 20.9401 24.849 18.9703 24.9571Z" fill="white"/>
</svg>
