<svg width="42" height="41" viewBox="0 0 42 41" fill="none" xmlns="http://www.w3.org/2000/svg">
<path d="M28.8803 1.34451C28.1147 0.0454089 26.4412 -0.386845 25.1421 0.378228L3.61539 13.0616L30.7462 4.51125L28.8803 1.34451Z" fill="white"/>
<path d="M37.2774 6.75208C37.2879 6.78366 37.302 6.81349 37.3119 6.84566C37.3026 6.817 37.2909 6.78483 37.2774 6.75208Z" fill="#1E1E1E"/>
<path d="M37.3119 6.84566C36.8586 5.40793 35.3255 4.60952 33.8878 5.06225L8.5047 13.0622H39.2708L37.3119 6.84566Z" fill="white"/>
<path d="M0 14.5321V36.1617C0 38.4815 1.88051 40.3614 4.19971 40.3614H37.8003C40.1201 40.3614 42 38.4809 42 36.1617V33.2219H28.1398C25.0081 33.2219 22.4696 30.6834 22.4696 27.5517C22.4696 24.4201 25.0081 21.8816 28.1398 21.8816H42V14.5321H0Z" fill="white"/>
<path d="M26.6699 27.5526C26.6699 26.7407 27.3279 26.0827 28.1398 26.0827V23.3529C25.82 23.3529 23.9401 25.2334 23.9401 27.5526C23.9401 29.8718 25.8206 31.7523 28.1398 31.7523V29.0225C27.3279 29.0225 26.6699 28.3645 26.6699 27.5526Z" fill="white"/>
<path d="M28.1398 23.352C30.4596 23.352 32.3395 25.2325 32.3395 27.5517C32.3395 29.8709 30.459 31.7514 28.1398 31.7514H42V23.352H28.1398Z" fill="white"/>
<path d="M32.3401 27.5523C32.3401 25.2325 30.4596 23.3526 28.1404 23.3526V26.0824C28.9522 26.0824 29.6103 26.7405 29.6103 27.5523C29.6103 28.3642 28.9522 29.0222 28.1404 29.0222V31.752C30.4596 31.752 32.3401 29.8715 32.3401 27.5523Z" fill="white"/>
</svg>
