<svg width="38" height="35" viewBox="0 0 38 35" fill="none" xmlns="http://www.w3.org/2000/svg">
<g clip-path="url(#clip0_2_381)">
<path d="M37.4401 27.8279L22.5852 2.08337C20.9931 -0.675454 17.013 -0.675454 15.4209 2.08337L0.565996 27.8279C-1.0257 30.5871 0.964325 34.036 4.14813 34.036H16.2055C14.7745 34.036 15.0703 29.6946 15.53 26.2498C12.9041 24.1139 12.7986 20.0248 15.6076 17.7737C17.0696 16.6014 19.666 16.3338 21.3365 17.1811C24.5461 18.8093 25.2793 22.8341 23.1451 25.4624C22.9181 25.7415 22.6639 25.9974 22.3864 26.2264C22.8712 29.6748 23.1863 34.036 21.6782 34.036H33.8596C37.0422 34.036 39.0306 30.5871 37.4401 27.8279Z" fill="#F1F1F1"/>
<path d="M33.8527 34.0218H22.0132L22.2491 33.7263C22.3508 33.5929 22.4313 33.4446 22.4878 33.2866C22.6494 32.8532 22.7476 32.2218 22.7739 31.4101C22.8143 30.1364 22.687 28.4209 22.3937 26.3117L22.3804 26.2131L22.4559 26.1484C23.298 25.4276 23.8988 24.4657 24.177 23.3924C24.4553 22.3191 24.3977 21.1862 24.0119 20.1468C23.6262 19.1073 22.9309 18.2113 22.02 17.5799C21.1091 16.9484 20.0265 16.6119 18.9184 16.6157C17.8102 16.6195 16.7299 16.9635 15.8234 17.6013C14.9169 18.2391 14.2279 19.1398 13.8493 20.1819C13.4708 21.224 13.421 22.3573 13.7067 23.4286C13.9923 24.4999 14.5997 25.4577 15.4468 26.1726L15.5231 26.2365L15.5098 26.3351C15.2327 28.4371 15.1119 30.1494 15.1519 31.4207C15.1773 32.2291 15.269 32.8581 15.4246 33.2898C15.4782 33.4469 15.5553 33.5951 15.6532 33.7292L15.8766 34.0218H4.1429C3.41685 34.0218 2.7036 33.8305 2.07483 33.4673C1.44606 33.104 0.923919 32.5816 0.560892 31.9524C0.197864 31.3233 0.00673531 30.6096 0.00671387 29.8831C0.00669243 29.1566 0.197779 28.4429 0.560769 27.8138L15.4157 2.06922C15.7787 1.44009 16.3009 0.91765 16.9297 0.554421C17.5585 0.191193 18.2718 -3.05176e-05 18.9978 -3.05176e-05C19.7239 -3.05176e-05 20.4371 0.191193 21.0659 0.554421C21.6947 0.91765 22.2169 1.44009 22.5799 2.06922L37.4349 27.8138C37.7979 28.4429 37.9889 29.1566 37.9889 29.8831C37.9889 30.6096 37.7978 31.3233 37.4347 31.9524C37.0717 32.5816 36.5496 33.104 35.9208 33.4673C35.292 33.8305 34.5788 34.0218 33.8527 34.0218ZM22.7209 33.658H33.8527C34.515 33.658 35.1656 33.4836 35.7391 33.1523C36.3126 32.821 36.7889 32.3444 37.12 31.7706C37.4511 31.1967 37.6255 30.5458 37.6255 29.8832C37.6255 29.2205 37.4512 28.5696 37.1202 27.9957L22.2652 2.25112C21.934 1.67731 21.4577 1.20083 20.8842 0.869555C20.3106 0.538279 19.6601 0.363878 18.9978 0.363878C18.3356 0.363878 17.685 0.538279 17.1114 0.869555C16.5379 1.20083 16.0616 1.67731 15.7304 2.25112L0.875473 27.9957C0.544387 28.5696 0.3701 29.2205 0.370129 29.8832C0.370158 30.5458 0.544502 31.1967 0.875638 31.7706C1.20677 32.3444 1.68304 32.821 2.25656 33.1523C2.83008 33.4836 3.48066 33.658 4.1429 33.658H15.1858C15.1472 33.5783 15.1128 33.4965 15.0828 33.4131C14.9115 32.9389 14.8154 32.291 14.7883 31.4324C14.7479 30.1615 14.8659 28.4642 15.1365 26.3857C14.2516 25.6129 13.6231 24.5887 13.3348 23.4495C13.0465 22.3103 13.1121 21.1102 13.5228 20.0092C13.9335 18.9082 14.6698 17.9586 15.6336 17.287C16.5975 16.6155 17.7429 16.2538 18.9174 16.2502H18.9376C20.11 16.2503 21.2545 16.6073 22.2193 17.2737C23.1841 17.9402 23.9233 18.8845 24.3389 19.9814C24.7545 21.0783 24.8268 22.2757 24.5461 23.4146C24.2654 24.5535 23.645 25.58 22.7674 26.3578C23.0538 28.4427 23.1783 30.1457 23.137 31.4203C23.1096 32.2841 23.0082 32.9361 22.828 33.4135C22.7969 33.4969 22.7611 33.5786 22.7209 33.658Z" fill="#E5E6E8"/>
</g>
<defs>
<clipPath id="clip0_2_381">
<rect width="38" height="34.036" fill="white"/>
</clipPath>
</defs>
</svg>
