<svg width="42" height="42" viewBox="0 0 42 42" fill="none" xmlns="http://www.w3.org/2000/svg">
<g clip-path="url(#clip0_452_12)">
<path d="M40.5103 4.5255L31.8701 0.368814C30.8647 -0.116811 29.6691 0.0879391 28.8829 0.874127L12.3336 15.9744L5.12137 10.5053C4.45199 9.99206 3.5083 10.0341 2.88618 10.6011L0.576178 12.7063C-0.189009 13.3967 -0.189009 14.6003 0.569616 15.2906L6.82499 20.9987L0.569616 26.7068C-0.189009 27.3971 -0.189009 28.6007 0.576178 29.2911L2.88618 31.3963C3.51487 31.9633 4.45199 32.0053 5.12137 31.4921L12.3336 26.0164L28.8907 41.1233C29.6704 41.9094 30.8661 42.1142 31.8714 41.6286L40.5195 37.4653C41.429 37.0283 42.0026 36.1121 42.0026 35.1002V6.888C42.0026 5.88263 41.4212 4.95994 40.5129 4.52288L40.5103 4.5255ZM31.5065 30.5366L18.942 21L31.5065 11.4634V30.5366Z" fill="white"/>
</g>
<defs>
<clipPath id="clip0_452_12">
<rect width="42" height="42" fill="white"/>
</clipPath>
</defs>
</svg>
