<svg width="84" height="77" viewBox="0 0 84 77" fill="none" xmlns="http://www.w3.org/2000/svg">
<path d="M62.2505 20.3992C62.2507 16.3647 61.0544 12.4208 58.8131 9.06618C56.5717 5.71156 53.386 3.09692 49.6586 1.55291C45.9313 0.00890342 41.8297 -0.395135 37.8727 0.391915C33.9158 1.17897 30.281 3.12175 27.4282 5.97456C24.5754 8.82738 22.6326 12.4621 21.8456 16.4191C21.0585 20.3761 21.4626 24.4776 23.0066 28.2049C24.5506 31.9323 27.1652 35.1181 30.5198 37.3594C33.8745 39.6008 37.8184 40.797 41.8529 40.7968C47.2605 40.7896 52.4444 38.6382 56.2681 34.8145C60.0919 30.9908 62.2433 25.8068 62.2505 20.3992V20.3992ZM41.8529 36.5333C38.6619 36.5333 35.5425 35.5871 32.8893 33.8142C30.2361 32.0414 28.1681 29.5216 26.947 26.5735C25.7258 23.6254 25.4063 20.3814 26.0288 17.2517C26.6514 14.1219 28.188 11.2471 30.4444 8.99073C32.7008 6.73434 35.5756 5.19772 38.7053 4.57518C41.835 3.95265 45.079 4.27216 48.0271 5.49331C50.9753 6.71446 53.4951 8.7824 55.2679 11.4356C57.0407 14.0889 57.987 17.2082 57.987 20.3992C57.9822 24.6768 56.2808 28.7777 53.2561 31.8024C50.2314 34.8271 46.1305 36.5285 41.8529 36.5333Z" fill="#5093FE"/>
<path d="M31.2378 49.5106V45.0055H26.9743V49.5106C26.9836 50.3054 26.8351 51.0941 26.5375 51.8311C26.2398 52.568 25.7988 53.2385 25.2401 53.8039C24.6814 54.3692 24.0161 54.818 23.2827 55.1243C22.5493 55.4306 21.7624 55.5884 20.9676 55.5884C20.1728 55.5884 19.3858 55.4306 18.6524 55.1243C17.919 54.818 17.2537 54.3692 16.695 53.8039C16.1363 53.2385 15.6954 52.568 15.3977 51.8311C15.1 51.0941 14.9515 50.3054 14.9609 49.5106V43.1008C14.9609 41.1169 14.1728 39.2142 12.7699 37.8114C11.3671 36.4085 9.46439 35.6204 7.48046 35.6204C5.49652 35.6204 3.59383 36.4085 2.19097 37.8114C0.788118 39.2142 0 41.1169 0 43.1008V45.2089H4.26435V43.1008C4.27791 42.2568 4.6227 41.452 5.22436 40.8599C5.82603 40.2678 6.63633 39.936 7.48046 39.936C8.32458 39.936 9.13486 40.2678 9.73652 40.8599C10.3382 41.452 10.683 42.2568 10.6966 43.1008V49.5106C10.6966 52.2346 11.7786 54.8469 13.7047 56.773C15.6309 58.6991 18.2432 59.7812 20.9672 59.7812C23.6911 59.7812 26.3034 58.6991 28.2296 56.773C30.1557 54.8469 31.2378 52.2346 31.2378 49.5106V49.5106Z" fill="#5093FE"/>
<path d="M35.4706 65.8464C35.4706 67.487 34.8189 69.0603 33.6589 70.2203C32.4989 71.3804 30.9255 72.0321 29.285 72.0321C27.6445 72.0321 26.0711 71.3804 24.9111 70.2203C23.7511 69.0603 23.0994 67.487 23.0994 65.8464V63.9658H18.835V65.8464C18.835 68.6178 19.936 71.2757 21.8956 73.2354C23.8553 75.195 26.5131 76.296 29.2845 76.296C32.0559 76.296 34.7138 75.195 36.6735 73.2354C38.6331 71.2757 39.7341 68.6178 39.7341 65.8464V45.0063H35.4706V65.8464Z" fill="#5093FE"/>
<path d="M76.225 35.6208C74.2418 35.623 72.3404 36.4118 70.938 37.814C69.5356 39.2163 68.7466 41.1176 68.7442 43.1008V49.5106C68.7442 51.1036 68.1114 52.6313 66.985 53.7577C65.8586 54.8841 64.3309 55.5169 62.7379 55.5169C61.145 55.5169 59.6172 54.8841 58.4908 53.7577C57.3644 52.6313 56.7317 51.1036 56.7317 49.5106V45.0055H52.4673V49.5106C52.4673 52.2346 53.5494 54.8469 55.4755 56.773C57.4016 58.6991 60.014 59.7812 62.7379 59.7812C65.4619 59.7812 68.0742 58.6991 70.0003 56.773C71.9264 54.8469 73.0085 52.2346 73.0085 49.5106V43.1008C73.0221 42.2568 73.3669 41.452 73.9686 40.8599C74.5702 40.2678 75.3805 39.936 76.2246 39.936C77.0687 39.936 77.879 40.2678 78.4807 40.8599C79.0824 41.452 79.4271 42.2568 79.4407 43.1008V45.2089H83.7051V43.1008C83.7027 41.1177 82.9138 39.2166 81.5115 37.8144C80.1093 36.4121 78.2081 35.6232 76.225 35.6208V35.6208Z" fill="#5093FE"/>
<path d="M60.6049 65.8464C60.6049 67.487 59.9532 69.0603 58.7932 70.2203C57.6332 71.3804 56.0598 72.0321 54.4193 72.0321C52.7788 72.0321 51.2054 71.3804 50.0454 70.2203C48.8854 69.0603 48.2337 67.487 48.2337 65.8464V45.0063H43.9694V65.8464C43.9694 68.6178 45.0703 71.2757 47.03 73.2354C48.9896 75.195 51.6475 76.296 54.4189 76.296C57.1903 76.296 59.8482 75.195 61.8078 73.2354C63.7675 71.2757 64.8684 68.6178 64.8684 65.8464V63.9658H60.6041L60.6049 65.8464Z" fill="#5093FE"/>
</svg>
